<svg width="24" height="24" viewBox="0 0 24 24" id="home" xmlns="http://www.w3.org/2000/svg">
  <path d="M2 14.0001C2 13.4478 2.44772 13.0001 3 13.0001H10C10.5523 13.0001 11 13.4478 11 14.0001V21.0001C11 21.5524 10.5523 22.0001 10 22.0001H3C2.44772 22.0001 2 21.5524 2 21.0001V14.0001ZM4 15.0001V20.0001H9V15.0001H4Z"/>
  <path d="M13 14.0001C13 13.4478 13.4477 13.0001 14 13.0001H21C21.5523 13.0001 22 13.4478 22 14.0001V21.0001C22 21.5524 21.5523 22.0001 21 22.0001H14C13.4477 22.0001 13 21.5524 13 21.0001V14.0001ZM15 15.0001V20.0001H20V15.0001H15Z"/>
  <path d="M13 3C13 2.44772 13.4477 2 14 2H21C21.5523 2 22 2.44772 22 3V10C22 10.5523 21.5523 11 21 11H14C13.4477 11 13 10.5523 13 10V3ZM15 4V9H20V4H15Z"/>
  <path d="M2 3C2 2.44772 2.44772 2 3 2H10C10.5523 2 11 2.44772 11 3V10C11 10.5523 10.5523 11 10 11H3C2.44772 11 2 10.5523 2 10V3ZM4 4V9H9V4H4Z"/>
</svg>
