<svg id="Layer_1" data-name="Layer 1" xmlns="http://www.w3.org/2000/svg" xmlns:xlink="http://www.w3.org/1999/xlink" viewBox="0 0 27.64 28"><defs><style>.cls-1{fill:none;clip-rule:evenodd;}.cls-2{clip-path:url(#clip-path);}.cls-3{fill:#3e82f1;}.cls-4{clip-path:url(#clip-path-2);}.cls-5{fill:#32a753;}.cls-6{clip-path:url(#clip-path-3);}.cls-7{fill:#f9bb00;}.cls-8{clip-path:url(#clip-path-4);}.cls-9{fill:#e74235;}</style><clipPath id="clip-path" transform="translate(-407 -284.28)"><path class="cls-1" d="M429.64,298.48a11,11,0,0,0-.16-1.84H421v3.48h4.84a4.11,4.11,0,0,1-1.79,2.72v2.26H427a8.8,8.8,0,0,0,2.68-6.62Zm0,0"/></clipPath><clipPath id="clip-path-2" transform="translate(-407 -284.28)"><path class="cls-1" d="M421,307.28a8.62,8.62,0,0,0,6-2.18l-2.91-2.26A5.43,5.43,0,0,1,416,300h-3v2.33a9,9,0,0,0,8,5Zm0,0"/></clipPath><clipPath id="clip-path-3" transform="translate(-407 -284.28)"><path class="cls-1" d="M416,300a5.36,5.36,0,0,1,0-3.42v-2.34h-3a9,9,0,0,0,0,8.09l3-2.33Zm0,0"/></clipPath><clipPath id="clip-path-4" transform="translate(-407 -284.28)"><path class="cls-1" d="M421,292.86a4.86,4.86,0,0,1,3.44,1.34l2.58-2.58a8.65,8.65,0,0,0-6-2.34,9,9,0,0,0-8,5l3,2.34a5.37,5.37,0,0,1,5-3.71Zm0,0"/></clipPath></defs><g class="cls-2"><rect class="cls-3" x="9" y="7.36" width="18.64" height="18.46"/></g><g class="cls-4"><rect class="cls-5" x="0.96" y="10.71" width="24" height="17.29"/></g><g class="cls-6"><rect class="cls-7" y="4.96" width="13.96" height="18.08"/></g><g class="cls-8"><rect class="cls-9" x="0.96" width="24.06" height="17.29"/></g></svg>